<?xml version="1.0" encoding="utf-8" standalone="yes" ?>
<svg preserveAspectRatio="xMinYMin" viewBox="34.40637562451991 -66.97430098369517 1680 727" style="overflow: hidden; position: relative;" xmlns="http://www.w3.org/2000/svg" width="1680" version="1.1" height="727"><path stroke-width="1" d="M349.234375,363.06209053848573L339.4,361.1L341.7,356.4L349.234375,363.06209053848573" stroke="#005ab5" fill="#005ab5" style=""></path><path stroke-width="1" d="M211.33203125,294.31990684429667L349.234375,363.06209053848573" stroke="#005ab5" fill="#005ab5" style=""></path><path stroke-width="1" d="M455.27734375,50L458.9,59.3L453.8,59.9L455.27734375,50" stroke="#000000" fill="#000000" style=""></path><path stroke-width="1" d="M464.0234375,127.52569901630483L455.27734375,50" stroke="#000000" fill="none" style=""></path><path stroke-width="1" d="M528.23828125,58.42545761382013L523.6,67.3L519.8,63.7L528.23828125,58.42545761382013" stroke="#000000" fill="#000000" style=""></path><path stroke-width="1" d="M464.0234375,127.52569901630483L528.23828125,58.42545761382013" stroke="#000000" fill="none" style=""></path><path stroke-width="1" d="M354.2890625,71.49191328191597L364.1,73.6L361.7,78.2L354.2890625,71.49191328191597" stroke="#000000" fill="#000000" style=""></path><path stroke-width="1" d="M464.0234375,127.52569901630483L354.2890625,71.49191328191597" stroke="#000000" fill="none" style=""></path><path stroke-width="1" d="M301.78515625,119.08612763513781L311.6,117L311.3,122.2L301.78515625,119.08612763513781" stroke="#000000" fill="#000000" style=""></path><path stroke-width="1" d="M464.0234375,127.52569901630483L301.78515625,119.08612763513781" stroke="#000000" fill="none" style=""></path><path stroke-width="1" d="M616.04296875,100.67961031405405L607,104.9L606.1,99.8L616.04296875,100.67961031405405" stroke="#000000" fill="#000000" style=""></path><path stroke-width="1" d="M464.0234375,127.52569901630483L616.04296875,100.67961031405405" stroke="#000000" fill="none" style=""></path><path stroke-width="1" d="M329.890625,176.89109176271438L339.2,173.2L339.8,178.4L329.890625,176.89109176271438" stroke="#000000" fill="#000000" style=""></path><path stroke-width="1" d="M464.0234375,161.52569901630483L329.890625,176.89109176271438" stroke="#000000" fill="none" style=""></path><path stroke-width="1" d="M633.734375,160.9962925992082L623.9,162.5L624.4,157.4L633.734375,160.9962925992082" stroke="#000000" fill="#000000" style=""></path><path stroke-width="1" d="M480.90625,144.52569901630483L633.734375,160.9962925992082" stroke="#000000" fill="none" style=""></path><path stroke-width="1" d="M583.76171875,215.11601879512546L573.9,213.5L576,208.8L583.76171875,215.11601879512546" stroke="#000000" fill="#000000" style=""></path><path stroke-width="1" d="M464.0234375,161.52569901630483L583.76171875,215.11601879512546" stroke="#000000" fill="none" style=""></path><path stroke-width="1" d="M330.2890625,241.59630695848966L322.5,247.9L320.4,243.1L330.2890625,241.59630695848966" stroke="#aabb44" fill="#aabb44" style=""></path><path stroke-width="1" d="M211.33203125,294.31990684429667L330.2890625,241.59630695848966" stroke="#aabb44" fill="#aabb44" style=""></path><path stroke-width="1" d="M458.17578125,235.92194301376267L448.7,239.1L448.4,233.9L458.17578125,235.92194301376267" stroke="#000000" fill="#000000" style=""></path><path stroke-width="1" d="M364.09375,241.59630695848966L458.17578125,235.92194301376267" stroke="#000000" fill="none" style=""></path><path stroke-width="1" d="M475.123046875,227.421875L471,218.3L476.1,217.5L475.123046875,227.421875" stroke="#000000" fill="#000000" style=""></path><path stroke-width="1" d="M464.0234375,161.52569901630483L475.123046875,227.421875" stroke="#000000" fill="none" style=""></path><path stroke-width="1" d="M364.09375,241.59630695848966L370,233.5L373.3,237.6L364.09375,241.59630695848966" stroke="#000000" fill="#000000" style=""></path><path stroke-width="1" d="M464.0234375,161.52569901630483L364.09375,241.59630695848966" stroke="#000000" fill="none" style=""></path><desc>Created with Raphaël 2.1.0</desc><defs></defs><rect stroke-width="1" style="cursor: pointer;" stroke="#616130" fill="#616130" ry="3" rx="3" r="3" height="17" width="38" y="41.5" x="415.14749725046295"></rect><text stroke-width="1" font-size="12px" fill="#000000" stroke="none" font="10px &quot;Arial&quot;" text-anchor="middle" y="50" x="434.14749725046295" style="text-anchor: middle; font: 12px &quot;Arial&quot;; cursor: pointer;"><tspan dy="4.5">节点13</tspan></text><rect stroke-width="1" style="cursor: pointer;" stroke="#cccccc" fill="#cccccc" ry="3" rx="3" r="3" height="17" width="38" y="49.92513397764026" x="529.0056708859745"></rect><text stroke-width="1" font-size="12px" fill="#000000" stroke="none" font="10px &quot;Arial&quot;" text-anchor="middle" y="58.42513397764026" x="548.0056708859745" style="text-anchor: middle; font: 12px &quot;Arial&quot;; cursor: pointer;"><tspan dy="4.499352727640257">节点12</tspan></text><rect stroke-width="1" style="cursor: pointer;" stroke="#cccccc" fill="#cccccc" ry="3" rx="3" r="3" height="17" width="38" y="62.991639063831954" x="314.7872829799462"></rect><text stroke-width="1" font-size="12px" fill="#000000" stroke="none" font="10px &quot;Arial&quot;" text-anchor="middle" y="71.49163906383195" x="333.7872829799462" style="text-anchor: middle; font: 12px &quot;Arial&quot;; cursor: pointer;"><tspan dy="4.499451563831954">节点11</tspan></text><rect stroke-width="1" style="cursor: pointer;" stroke="#cccccc" fill="#cccccc" ry="3" rx="3" r="3" height="17" width="38" y="110.58631777027561" x="261.68435016397933"></rect><text stroke-width="1" font-size="12px" fill="#000000" stroke="none" font="10px &quot;Arial&quot;" text-anchor="middle" y="119.08631777027561" x="280.68435016397933" style="text-anchor: middle; font: 12px &quot;Arial&quot;; cursor: pointer;"><tspan dy="4.500380270275613">节点10</tspan></text><rect stroke-width="1" style="cursor: pointer;" stroke="#cccccc" fill="#cccccc" ry="3" rx="3" r="3" height="17" width="31" y="92.17953312810809" x="616.8089267168133"></rect><text stroke-width="1" font-size="12px" fill="#000000" stroke="none" font="10px &quot;Arial&quot;" text-anchor="middle" y="100.67953312810809" x="632.3089267168133" style="text-anchor: middle; font: 12px &quot;Arial&quot;; cursor: pointer;"><tspan dy="4.4998456281080905">节点9</tspan></text><rect stroke-width="1" style="cursor: pointer;" stroke="#cccccc" fill="#cccccc" ry="3" rx="3" r="3" height="17" width="31" y="168.39155852542874" x="296.74230595478764"></rect><text stroke-width="1" font-size="12px" fill="#000000" stroke="none" font="10px &quot;Arial&quot;" text-anchor="middle" y="176.89155852542874" x="312.24230595478764" style="text-anchor: middle; font: 12px &quot;Arial&quot;; cursor: pointer;"><tspan dy="4.500933525428735">节点8</tspan></text><rect stroke-width="1" style="cursor: pointer;" stroke="#cccccc" fill="#cccccc" ry="3" rx="3" r="3" height="17" width="31" y="152.4964914484164" x="634.5"></rect><text stroke-width="1" font-size="12px" fill="#000000" stroke="none" font="10px &quot;Arial&quot;" text-anchor="middle" y="160.9964914484164" x="650" style="text-anchor: middle; font: 12px &quot;Arial&quot;; cursor: pointer;"><tspan dy="4.500397698416407">节点7</tspan></text><rect stroke-width="1" style="cursor: pointer;" stroke="#cccccc" fill="#cccccc" ry="3" rx="3" r="3" height="17" width="31" y="206.61485009025094" x="584.528798725921"></rect><text stroke-width="1" font-size="12px" fill="#000000" stroke="none" font="10px &quot;Arial&quot;" text-anchor="middle" y="215.11485009025094" x="600.028798725921" style="text-anchor: middle; font: 12px &quot;Arial&quot;; cursor: pointer;"><tspan dy="4.50156884025094">节点6</tspan></text><rect stroke-width="1" style="cursor: pointer;" stroke="#cccccc" fill="#cccccc" ry="3" rx="3" r="3" height="17" width="31" y="285.81950118859334" x="178.23855269941504"></rect><text stroke-width="1" font-size="12px" fill="#000000" stroke="none" font="10px &quot;Arial&quot;" text-anchor="middle" y="294.31950118859334" x="193.73855269941504" style="text-anchor: middle; font: 12px &quot;Arial&quot;; cursor: pointer;"><tspan dy="4.499188688593335">节点4</tspan></text><rect stroke-width="1" style="cursor: pointer;" stroke="#cccccc" fill="#cccccc" ry="3" rx="3" r="3" height="17" width="31" y="227.42201102752534" x="458.94107333926655"></rect><text stroke-width="1" font-size="12px" fill="#000000" stroke="none" font="10px &quot;Arial&quot;" text-anchor="middle" y="235.92201102752534" x="474.44107333926655" style="text-anchor: middle; font: 12px &quot;Arial&quot;; cursor: pointer;"><tspan dy="4.500136027525343">节点3</tspan></text><rect stroke-width="1" style="cursor: pointer;" stroke="#616130" fill="#616130" ry="3" rx="3" r="3" height="17" width="31" y="233.09495766697933" x="331.055202831217"></rect><text stroke-width="1" font-size="12px" fill="#ffffff" stroke="none" font="10px &quot;Arial&quot;" text-anchor="middle" y="241.59495766697933" x="346.555202831217" style="text-anchor: middle; font: 12px &quot;Arial&quot;; cursor: pointer;"><tspan dy="4.501207666979326">节点2</tspan></text><rect stroke-width="1" style="cursor: pointer;" stroke="#cccccc" fill="#cccccc" ry="3" rx="3" r="3" height="34" width="31" y="127.52569901630483" x="447.9063756245199"></rect><text stroke-width="1" font-size="12px" fill="#000000" stroke="none" font="10px &quot;Arial&quot;" text-anchor="middle" y="144.52569901630483" x="463.4063756245199" style="text-anchor: middle; font: 12px &quot;Arial&quot;; cursor: pointer;"><tspan dy="-2.700863483695173">节点1</tspan><tspan x="463.4063756245199" dy="14.399999999999999">任务</tspan></text><text stroke-width="1" transform="matrix(0.7804,-0.6253,0.6253,0.7804,-46.2324,302.2598)" font-size="12px" fill="#000000" stroke="none" font="10px &quot;Arial&quot;" text-anchor="middle" y="201.56100298739725" x="414.05859375" style="text-anchor: middle; font: 12px &quot;Arial&quot;;"><tspan dy="3.998502987397245">1-&gt;2</tspan></text><text stroke-width="1" transform="matrix(0.1661,0.9861,-0.9861,0.1661,590.3833,-310.6517)" font-size="12px" fill="#000000" stroke="none" font="10px &quot;Arial&quot;" text-anchor="middle" y="194.4737870081524" x="469.5732421875" style="text-anchor: middle; font: 12px &quot;Arial&quot;;"><tspan dy="4.001130758152414">1-&gt;3</tspan></text><text stroke-width="1" transform="matrix(0.9982,-0.0602,0.0602,0.9982,-22.0952,17.6953)" font-size="12px" fill="#000000" stroke="none" font="10px &quot;Arial&quot;" text-anchor="middle" y="238.75912498612615" x="411.134765625" style="text-anchor: middle; font: 12px &quot;Arial&quot;;"><tspan dy="4.001312486126153">2-&gt;3</tspan></text><text stroke-width="1" transform="matrix(0.9142,-0.4052,0.4052,0.9142,-95.8971,128.6825)" font-size="12px" fill="#aabb44" stroke="#aabb44" font="10px &quot;Arial&quot;" text-anchor="middle" y="267.9581069013932" x="270.810546875" style="text-anchor: middle; font: 12px &quot;Arial&quot;;"><tspan dy="4.001075651393194">4-&gt;2</tspan></text><text stroke-width="1" transform="matrix(0.9128,0.4085,-0.4085,0.9128,118.6548,-208.3857)" font-size="12px" fill="#000000" stroke="none" font="10px &quot;Arial&quot;" text-anchor="middle" y="188.32085890571514" x="523.892578125" style="text-anchor: middle; font: 12px &quot;Arial&quot;;"><tspan dy="4.000546405715141">1-&gt;6</tspan></text><text stroke-width="1" transform="matrix(0.9942,0.1072,-0.1072,0.9942,12.4838,-67.7099)" font-size="12px" fill="#000000" stroke="none" font="10px &quot;Arial&quot;" text-anchor="middle" y="152.7609958077565" x="557.3203125" style="text-anchor: middle; font: 12px &quot;Arial&quot;;"><tspan dy="3.999277057756501">1-&gt;7</tspan></text><text stroke-width="1" transform="matrix(0.9935,-0.1138,0.1138,0.9935,-25.5334,39.3046)" font-size="12px" fill="#000000" stroke="none" font="10px &quot;Arial&quot;" text-anchor="middle" y="169.2083953895096" x="396.95703125" style="text-anchor: middle; font: 12px &quot;Arial&quot;;"><tspan dy="4.0013641395096045">1-&gt;8</tspan></text><text stroke-width="1" transform="matrix(0.9848,-0.1739,0.1739,0.9848,-20.8753,89.2661)" font-size="12px" fill="#000000" stroke="none" font="10px &quot;Arial&quot;" text-anchor="middle" y="114.10265466517944" x="540.033203125" style="text-anchor: middle; font: 12px &quot;Arial&quot;;"><tspan dy="4.001092165179443">1-&gt;9</tspan></text><text stroke-width="1" transform="matrix(0.9986,0.0519,-0.0519,0.9986,-0.65,-28.1586)" font-size="12px" fill="#000000" stroke="none" font="10px &quot;Arial&quot;" text-anchor="middle" y="123.30591332572132" x="382.904296875" style="text-anchor: middle; font: 12px &quot;Arial&quot;;"><tspan dy="4.0012258257213205">1-&gt;10</tspan></text><text stroke-width="1" transform="matrix(0.8906,0.4548,-0.4548,0.8906,86.5816,-186.1775)" font-size="12px" fill="#000000" stroke="none" font="10px &quot;Arial&quot;" text-anchor="middle" y="99.5088061491104" x="409.15625" style="text-anchor: middle; font: 12px &quot;Arial&quot;;"><tspan dy="4.000993649110399">1-&gt;11</tspan></text><text stroke-width="1" transform="matrix(0.6807,-0.7325,0.7325,0.6807,79.1513,393.9084)" font-size="12px" fill="#000000" stroke="none" font="10px &quot;Arial&quot;" text-anchor="middle" y="92.97557831506248" x="496.130859375" style="text-anchor: middle; font: 12px &quot;Arial&quot;;"><tspan dy="3.999015815062478">1-&gt;12</tspan></text><text stroke-width="1" transform="matrix(0.1121,0.9937,-0.9937,0.1121,503.8799,-387.3437)" font-size="12px" fill="#000000" stroke="none" font="10px &quot;Arial&quot;" text-anchor="middle" y="88.76284950815241" x="459.650390625" style="text-anchor: middle; font: 12px &quot;Arial&quot;;"><tspan dy="4.001130758152414">1-&gt;13</tspan></text><text stroke-width="1" transform="matrix(0.895,0.4461,-0.4461,0.895,172.4993,-101.304)" font-size="12px" fill="#005ab5" stroke="#005ab5" font="10px &quot;Arial&quot;" text-anchor="middle" y="328.6909986913912" x="280.283203125" style="text-anchor: middle; font: 12px &quot;Arial&quot;;"><tspan dy="3.9995924413912007">4-&gt;14</tspan></text><rect transform="matrix(1,0,0,1,319,45)" stroke-width="1" style="cursor: pointer;" stroke="#cccccc" fill="#cccccc" ry="3" rx="3" r="3" height="17" width="38" y="309.56168107697147" x="31"></rect><text transform="matrix(1,0,0,1,319,45)" stroke-width="1" font-size="12px" fill="#000000" stroke="none" font="10px &quot;Arial&quot;" text-anchor="middle" y="318.06168107697147" x="50" style="text-anchor: middle; font: 12px &quot;Arial&quot;; cursor: pointer;"><tspan dy="4.4991810769714675">节点14</tspan></text><rect transform="matrix(1,0,0,1,164,-157)" stroke-width="1" style="cursor: pointer;" stroke="#cccccc" fill="#cccccc" ry="3" rx="3" r="3" height="17" width="103" y="501.5" x="339.02585877132753"></rect><text transform="matrix(1,0,0,1,164,-157)" stroke-width="1" font-size="12px" fill="#000000" stroke="none" font="10px &quot;Arial&quot;" text-anchor="middle" y="510" x="390.52585877132753" style="text-anchor: middle; font: 12px &quot;Arial&quot;; cursor: pointer;"><tspan dy="4.5">节点5，孤独的节点</tspan></text></svg>

